<?xml version="1.0" standalone="no"?>
<!DOCTYPE svg PUBLIC "-//W3C//DTD SVG 20010904//EN"
 "http://www.w3.org/TR/2001/REC-SVG-20010904/DTD/svg10.dtd">
<svg version="1.0" xmlns="http://www.w3.org/2000/svg"
 width="1563.000000pt" height="1563.000000pt" viewBox="0 0 1563.000000 1563.000000"
 preserveAspectRatio="xMidYMid meet">
<metadata>
Created by potrace 1.14, written by Peter Selinger 2001-2017
</metadata>
<g transform="translate(0.000000,1563.000000) scale(0.100000,-0.100000)"
fill="#000000" stroke="none">
<path d="M538 15615 c-216 -53 -377 -200 -456 -417 l-27 -73 -2 -7285 c-2
-6489 -1 -7292 12 -7350 55 -233 242 -419 475 -474 58 -14 841 -16 7330 -15
7115 0 7267 1 7338 19 157 41 305 153 385 290 l37 65 0 7438 0 7438 -33 61
c-68 130 -220 248 -377 295 l-75 22 -7275 0 c-6152 -1 -7284 -3 -7332 -14z"/>
</g>
</svg>
